<?xml version="1.0" encoding="UTF-8" standalone="no"?>
<!-- Created with Inkscape (http://www.inkscape.org/) -->

<svg
   width="360.05927mm"
   height="251.35962mm"
   viewBox="0 0 360.05927 251.35962"
   version="1.1"
   id="svg1"
   xml:space="preserve"
   inkscape:version="1.4.2 (ebf0e940, 2025-05-08)"
   sodipodi:docname="shaasam_logo.svg"
   xmlns:inkscape="http://www.inkscape.org/namespaces/inkscape"
   xmlns:sodipodi="http://sodipodi.sourceforge.net/DTD/sodipodi-0.dtd"
   xmlns="http://www.w3.org/2000/svg"
   xmlns:svg="http://www.w3.org/2000/svg"><sodipodi:namedview
     id="namedview1"
     pagecolor="#ffffff"
     bordercolor="#666666"
     borderopacity="1.0"
     inkscape:showpageshadow="2"
     inkscape:pageopacity="0.0"
     inkscape:pagecheckerboard="0"
     inkscape:deskcolor="#d1d1d1"
     inkscape:document-units="mm"
     inkscape:zoom="0.77771465"
     inkscape:cx="679.55516"
     inkscape:cy="463.53762"
     inkscape:window-width="2280"
     inkscape:window-height="1022"
     inkscape:window-x="1067"
     inkscape:window-y="33"
     inkscape:window-maximized="0"
     inkscape:current-layer="layer1" /><defs
     id="defs1" /><g
     inkscape:label="Layer 1"
     inkscape:groupmode="layer"
     id="layer1"
     transform="translate(74.877076,-25.889937)"><path
       style="fill:#000000"
       d="m -55.29791,276.99782 c -4.221961,-0.40062 -7.538655,-1.08495 -11.377083,-2.34742 -3.831761,-1.26028 -8.202083,-3.2361 -8.202083,-3.70816 0,-0.33795 2.060417,-5.02248 2.527878,-5.74734 l 0.37343,-0.57905 2.716533,1.277 c 5.961132,2.80223 11.568346,4.04371 18.459241,4.08701 8.612852,0.0541 13.259205,-1.8995 14.678168,-6.1716 0.606421,-1.82576 0.454843,-4.72851 -0.325656,-6.23639 -1.659974,-3.20697 -4.229321,-4.2431 -14.451179,-5.82766 -3.365473,-0.5217 -7.079231,-1.1726 -8.252797,-1.44644 -9.923467,-2.31552 -14.13355,-6.54401 -14.160766,-14.22268 -0.01684,-4.74974 1.050932,-7.40877 4.223553,-10.5178 2.59759,-2.54552 6.441937,-4.2965 11.409511,-5.19667 3.208821,-0.58146 12.10126,-0.43935 15.922017,0.25446 5.137312,0.93287 11.890504,3.36489 12.298913,4.42919 0.188829,0.49208 -1.84874,5.45227 -2.376781,5.78595 -0.270251,0.17078 -1.225559,-0.0859 -3.128577,-0.84058 -7.225556,-2.8655 -13.724531,-3.78287 -20.202031,-2.85166 -3.370624,0.48456 -4.840238,0.93748 -6.502075,2.00388 -2.334964,1.49834 -3.419799,3.52192 -3.419799,6.37907 0,3.32834 1.94307,5.58481 5.864866,6.81082 2.093885,0.65457 3.200025,0.86925 10.309638,2.00092 7.371205,1.1733 10.617714,2.00136 13.716459,3.49855 5.350826,2.5853 7.937865,6.70943 7.935947,12.65107 -0.0015,4.65695 -1.19681,7.69724 -4.21822,10.72914 -3.388986,3.40075 -7.755485,5.19737 -14.069028,5.78877 -3.363818,0.3151 -6.412147,0.31435 -9.750079,-0.002 z m 97.87243,-0.007 c -7.979009,-1.03091 -12.941185,-6.18553 -12.941185,-13.44307 0,-4.03379 1.000557,-6.82986 3.270524,-9.13952 2.508155,-2.55202 5.643699,-3.8517 11.232308,-4.65581 3.911568,-0.5628 13.240012,-0.0109 16.548683,0.97912 0.456731,0.13667 0.47854,0.0263 0.303111,-1.53346 -0.752238,-6.68834 -4.606277,-9.27277 -13.230668,-8.87219 -4.201265,0.19514 -7.184071,0.70251 -10.31875,1.75521 -1.309687,0.43982 -2.460728,0.80111 -2.557869,0.80287 -0.219133,0.004 -1.807756,-4.71524 -1.807756,-5.37016 0,-1.3401 7.752299,-3.2054 14.684375,-3.53325 10.181292,-0.48153 16.636007,2.23389 19.599198,8.24514 1.608642,3.26335 1.699759,4.34252 1.699759,20.13161 v 14.13193 h -2.877344 c -1.582539,0 -3.249414,-0.0744 -3.704166,-0.16537 l -0.826823,-0.16536 v -2.65304 -2.65303 l -1.521354,1.44717 c -1.731051,1.64664 -4.599931,3.40807 -6.548437,4.02059 -2.954305,0.9287 -7.066471,1.17932 -11.003606,0.67062 z m 9.96266,-6.5287 c 3.723881,-0.99869 6.110283,-2.84137 7.603209,-5.8709 0.811886,-1.64752 0.843491,-1.83554 0.844756,-5.0255 l 0.0013,-3.31395 -1.455209,-0.1843 c -8.7305,-1.10574 -16.095402,-0.64379 -18.8088,1.17975 -1.249876,0.83998 -2.551927,3.10734 -2.765349,4.81551 -0.358456,2.86899 0.940145,6.0838 2.973943,7.36227 0.967142,0.60796 2.928488,1.33893 4.312707,1.6073 1.287865,0.24969 5.449444,-0.0756 7.293429,-0.57018 z m 38.611777,6.64253 c -8.012077,-0.99986 -12.652139,-4.94734 -13.64286,-11.60652 -0.69721,-4.68633 0.509341,-8.58216 3.53073,-11.40037 2.052244,-1.91423 3.78384,-2.80331 7.203228,-3.69845 2.266399,-0.59331 3.362778,-0.71037 7.671402,-0.81907 4.212243,-0.10626 5.621033,-0.0371 8.691423,0.42651 2.01538,0.30433 3.81074,0.55332 3.98968,0.55332 0.24826,0 0.26978,-0.41474 0.0908,-1.75032 -0.6473,-4.83129 -2.83971,-7.17982 -7.66384,-8.20958 -3.943198,-0.84172 -11.66678,-0.0872 -16.484158,1.61032 -1.018081,0.35874 -1.940061,0.56326 -2.048844,0.45448 -0.24401,-0.24402 -1.788642,-4.77436 -1.788642,-5.24603 0,-1.25315 7.855161,-3.12406 14.419791,-3.43444 8.016673,-0.37904 13.584093,1.06398 17.217543,4.46261 1.88106,1.7595 3.0587,3.80535 3.87868,6.73823 0.55586,1.98819 0.58153,2.61911 0.66968,16.45928 0.0521,8.18695 -0.01,14.4933 -0.14365,14.62715 -0.1323,0.1323 -1.81422,0.15608 -3.84208,0.0543 l -3.60676,-0.18101 -0.0753,-2.5399 -0.0752,-2.53989 -1.45521,1.35637 c -2.92937,2.73041 -5.82071,4.11661 -9.565972,4.58622 -2.099319,0.26323 -5.282488,0.30743 -6.970481,0.0968 z m 8.816912,-6.57429 c 3.480401,-0.81975 6.207511,-2.65805 7.505871,-5.05959 0.93926,-1.7373 1.19823,-2.90297 1.3812,-6.2169 0.1814,-3.28545 0.55314,-2.94489 -3.68107,-3.37226 -5.16092,-0.52089 -7.96072,-0.60084 -10.64422,-0.30394 -4.673957,0.51712 -6.663925,1.45408 -8.132198,3.82895 -1.53729,2.48651 -1.181959,6.51116 0.776911,8.79966 0.95138,1.11147 3.239891,2.30535 5.229625,2.72821 1.460887,0.31047 5.43034,0.0984 7.563881,-0.40413 z m 41.189331,6.59929 c -0.43656,-0.0611 -1.92484,-0.24203 -3.30729,-0.40216 -4.384,-0.50779 -10.47291,-2.42366 -12.38926,-3.89826 l -0.6153,-0.47347 1.06298,-2.59223 c 0.58465,-1.42572 1.13603,-2.66527 1.2253,-2.75454 0.0893,-0.0893 0.72126,0.0474 1.4044,0.30373 6.0772,2.28021 9.32882,3.05104 13.82528,3.27741 4.73635,0.23845 9.05869,-0.58638 10.97601,-2.09454 1.49807,-1.17838 2.12651,-3.90852 1.33474,-5.79852 -0.94466,-2.25492 -2.47889,-2.83992 -10.64191,-4.05775 -3.47299,-0.51812 -7.2525,-1.17874 -8.39891,-1.46803 -4.59137,-1.1586 -8.02738,-3.69124 -9.14841,-6.74318 -2.14322,-5.83481 0.23651,-11.55254 5.95245,-14.30179 6.08386,-2.92622 16.88892,-2.90736 25.85594,0.0452 2.38092,0.78394 2.93932,1.22761 2.76174,2.19429 -0.256,1.39359 -1.61749,4.84414 -1.96379,4.97703 -0.19689,0.0755 -1.03835,-0.15925 -1.86993,-0.52178 -1.97804,-0.86233 -3.65535,-1.37631 -6.40674,-1.96319 -3.11737,-0.66495 -10.33579,-0.68043 -12.4523,-0.0267 -3.85682,1.19125 -5.66931,4.2353 -4.2169,7.08226 1.0597,2.07718 3.49434,2.86822 12.19626,3.9627 9.24947,1.16334 13.38386,3.06015 15.55698,7.13734 0.98196,1.84235 1.30819,3.97729 1.04762,6.85597 -0.49557,5.47486 -5.30337,9.80998 -12.03308,10.85007 -2.01239,0.31102 -8.51122,0.58427 -9.75588,0.4102 z m 40.71329,-0.26161 c -7.46084,-1.25349 -11.749,-5.76228 -12.18717,-12.81422 -0.24954,-4.01606 0.88258,-7.33299 3.35068,-9.81695 1.81735,-1.82903 4.4706,-3.15721 7.94299,-3.97614 3.67037,-0.86562 11.68709,-0.95194 16.47948,-0.17745 1.86043,0.30066 3.4243,0.50117 3.47527,0.44558 0.17218,-0.18781 -0.37891,-3.53178 -0.78449,-4.7602 -0.88106,-2.66862 -3.66764,-4.66435 -7.38786,-5.29114 -2.29823,-0.38721 -7.8949,-0.16754 -10.98484,0.43116 -1.23484,0.23926 -3.304,0.7868 -4.59815,1.21676 -1.29414,0.42996 -2.42003,0.71471 -2.50197,0.63277 -0.0819,-0.0819 -0.53081,-1.30684 -0.9975,-2.722 l -0.84852,-2.57301 0.63505,-0.58292 c 1.38887,-1.27485 7.90088,-2.6231 13.95801,-2.88988 8.12923,-0.35804 13.91273,1.20813 17.42265,4.71805 1.83906,1.83906 2.94831,3.95222 3.68878,7.02729 0.52788,2.19219 0.55729,3.02429 0.573,16.21222 0.009,7.64578 -0.0751,14.04968 -0.18705,14.23089 -0.15307,0.24766 -1.0628,0.29465 -3.66415,0.18928 -1.90329,-0.0771 -3.50083,-0.18049 -3.5501,-0.22976 -0.0493,-0.0493 -0.16757,-1.18833 -0.26289,-2.53124 l -0.17332,-2.44167 -1.21601,1.18143 c -1.65173,1.60475 -4.21559,3.20312 -6.19271,3.86068 -3.21887,1.07054 -7.98547,1.33313 -11.98918,0.66047 z m 10.3513,-6.34578 c 3.89103,-1.04231 6.6286,-3.14338 8.00808,-6.14616 0.59307,-1.29097 0.71168,-1.97182 0.80855,-4.64136 0.0624,-1.72066 0.009,-3.22819 -0.11822,-3.35008 -0.77964,-0.74557 -13.30024,-1.16652 -16.48695,-0.5543 -4.49791,0.86411 -6.63386,3.23594 -6.62867,7.36068 0.003,2.54276 0.73136,4.28616 2.37935,5.69678 1.06757,0.9138 3.35344,1.86315 5.15869,2.14246 1.39308,0.21554 5.23808,-0.0684 6.87917,-0.50802 z m -210.145306,5.78399 -0.595313,-0.1184 v -28.93847 -28.93847 l 0.588038,-0.41187 c 0.442997,-0.31029 1.284149,-0.41188 3.410272,-0.41188 4.352324,0 3.9494,-1.21392 3.967324,11.95264 l 0.01501,11.02661 1.6704619,-1.70368 c 1.3188929,-1.34511 2.1913869,-1.94839 4.1456144,-2.86645 3.2213546,-1.51333 4.91268913,-1.85735 9.089736,-1.84889 3.9419125,0.008 5.6361127,0.38 9.0194677,1.98046 3.845172,1.81891 6.578831,5.48643 7.676503,10.29889 0.386759,1.69565 0.468607,3.98151 0.562529,15.71038 0.07022,8.7689 0.0162,13.81971 -0.149565,13.98547 -0.387823,0.38783 -7.388167,0.46506 -7.703591,0.085 -0.152724,-0.18402 -0.287987,-5.68838 -0.338793,-13.78681 -0.07493,-11.94303 -0.13687,-13.63593 -0.543132,-14.84335 -0.990303,-2.9432 -3.4630672,-5.49472 -6.1421689,-6.33778 -1.7799651,-0.56012 -5.77104886,-0.77338 -7.5068401,-0.40112 -4.4808533,0.96097 -7.8271931,4.20204 -9.2066838,8.91705 -0.3955192,1.35186 -0.4780352,3.28413 -0.6035652,14.13366 l -0.14541,12.56771 -3.307291,0.0339 c -1.819011,0.0186 -3.575183,-0.0194 -3.902604,-0.0845 z m 240.652196,-0.0233 -3.35977,-0.074 -0.0798,-20.29897 c -0.0439,-11.16443 0.0137,-20.50732 0.12794,-20.76199 0.18168,-0.40492 0.61958,-0.46302 3.49011,-0.46302 1.80531,0 3.34383,0.0995 3.41895,0.221 0.0751,0.12155 0.15597,1.45449 0.17966,2.9621 l 0.0431,2.7411 0.54714,-0.77928 c 1.63102,-2.32305 4.82116,-4.39921 8.12061,-5.28495 3.746,-1.00562 8.37241,-0.73654 11.74633,0.68317 2.66378,1.12089 4.25706,2.38529 5.53845,4.39523 l 1.10001,1.72543 0.65347,-0.8845 c 1.964,-2.65838 5.64451,-5.02406 9.27216,-5.95978 2.57412,-0.66396 7.95999,-0.59045 10.69283,0.14595 5.49615,1.48102 8.84785,5.23609 10.38713,11.63723 0.35071,1.45845 0.44293,4.12175 0.54005,15.5974 0.0813,9.61075 0.0306,13.94294 -0.16623,14.18004 -0.21306,0.25672 -1.17188,0.31884 -3.8655,0.25043 -1.9702,-0.05 -3.68981,-0.091 -3.82138,-0.091 -0.13827,0 -0.27995,-5.83333 -0.33575,-13.82447 -0.10655,-15.25692 -0.118,-15.36867 -1.8379,-17.93609 -0.96681,-1.44323 -3.04507,-3.03815 -4.54661,-3.48919 -0.60143,-0.18067 -2.34367,-0.33033 -3.87164,-0.33259 -2.51349,-0.004 -2.92223,0.0667 -4.2909,0.73876 -2.66571,1.30902 -4.62316,3.68593 -5.67896,6.89587 -0.38585,1.17311 -0.46666,3.16848 -0.59607,14.71855 l -0.14969,13.36146 -3.26905,0.0241 c -1.79798,0.0133 -3.54488,-0.0286 -3.882,-0.0931 l -0.61294,-0.11717 -0.0975,-13.66529 c -0.096,-13.45643 -0.10683,-13.69199 -0.70686,-15.41333 -1.59283,-4.56948 -5.18107,-6.83528 -10.34059,-6.52958 -4.46723,0.26469 -7.40775,2.73529 -9.06479,7.61617 -0.5657,1.66629 -0.58668,2.12928 -0.6744,14.88281 -0.0498,7.23967 -0.17278,13.17213 -0.27328,13.18327 -0.10051,0.0111 -0.36133,0.0409 -0.57962,0.0661 -0.21828,0.0253 -1.90877,0.0126 -3.75664,-0.028 z M 49.344793,192.61133 c -7.242695,-0.52408 -14.683446,-2.63119 -21.684636,-6.14078 -8.70113,-4.36175 -17.018816,-11.74733 -21.6838299,-19.25388 -3.093944,-4.97852 -5.1885913,-9.55934 -6.62669962,-14.49204 -2.06082348,-7.06861 0.15638593,-13.72023 5.87612672,-17.62835 6.2803938,-4.29121 14.5856488,-3.50784 20.1129128,1.89709 2.317107,2.26582 3.21461,3.8753 4.69433,8.41828 0.655917,2.01377 1.672862,4.49926 2.259877,5.52332 4.034801,7.03873 10.504497,11.18315 18.792235,12.03813 2.791519,0.28797 6.157488,0.0238 8.843016,-0.69412 2.082127,-0.55659 6.017352,-2.39856 7.96994,-3.73051 3.140344,-2.14218 6.08738,-5.75672 7.925262,-9.72034 1.527223,-3.29365 1.817535,-4.81783 1.814236,-9.525 -0.0029,-4.088 -0.03265,-4.31963 -0.867667,-6.74688 -1.735905,-5.04599 -4.714677,-9.18545 -8.714761,-12.11049 -3.572384,-2.61229 -5.39113,-3.41998 -15.138468,-6.72288 -13.142785,-4.45344 -18.366892,-7.20142 -23.212371,-12.21014 -4.114214,-4.252814 -6.530537,-8.651673 -8.01947,-14.599252 -0.760286,-3.03698 -0.862053,-3.868976 -0.873535,-7.141608 -0.0071,-2.037291 0.143372,-4.597135 0.334488,-5.688541 0.756665,-4.321076 2.957594,-9.718533 5.344822,-13.107394 0.491577,-0.697833 2.084401,-2.509204 3.539609,-4.02527 4.722001,-4.919475 9.882549,-7.772264 16.933333,-9.36087 2.378502,-0.535898 10.231253,-0.463356 13.169604,0.121659 6.22473,1.23932 11.590787,3.985643 15.978492,8.177719 5.848448,5.587689 9.090755,12.302771 10.146643,21.014526 0.355826,2.935789 0.104292,4.124326 -1.123484,5.308628 -2.969387,2.864245 -7.342266,1.008239 -7.349297,-3.119305 -0.0031,-1.831689 -0.477887,-4.321487 -1.326754,-6.957834 C 74.51972,66.113107 70.178396,61.000544 64.690625,58.27646 55.035484,53.483727 43.672199,55.231444 36.467913,62.617219 c -2.469764,2.531983 -2.965439,3.177915 -4.147881,5.405262 -2.609054,4.914634 -3.53846,10.618314 -2.561915,15.722252 1.127545,5.893143 3.727529,10.225187 8.278451,13.793393 3.563989,2.794384 8.115351,4.917354 16.621904,7.753224 12.445631,4.14905 16.982871,6.40538 21.430185,10.65704 5.365244,5.1292 8.099922,10.11264 9.666789,17.61589 0.544076,2.60541 0.713569,7.45857 0.351744,10.07163 -0.725977,5.24292 -3.094852,10.86023 -6.467215,15.33569 -4.639744,6.15741 -11.473023,10.37266 -19.695775,12.14976 -2.944973,0.63647 -9.484635,0.62237 -12.583782,-0.0271 -7.193386,-1.50756 -13.062109,-4.7025 -17.818042,-9.70017 -3.675008,-3.8618 -5.816619,-7.59646 -7.600138,-13.25351 -1.253194,-3.97495 -2.151881,-5.24659 -4.553662,-6.44345 -1.782651,-0.88833 -4.496989,-0.9422 -6.189557,-0.12284 -2.4778254,1.19949 -4.3103837,4.46214 -3.9564927,7.04406 0.4714372,3.43951 3.2507147,9.88269 6.1399967,14.23431 3.465752,5.21987 7.785539,9.52198 13.206057,13.15203 5.051163,3.3827 12.271505,6.29355 18.369216,7.40547 4.456483,0.81264 12.899034,0.81772 17.243021,0.0104 16.81248,-3.12468 30.235861,-14.25864 35.812407,-29.70442 1.04327,-2.88962 1.896063,-6.51235 2.511826,-10.67042 2.61228,-17.63996 8.9657,-29.0558 21.31557,-38.29985 l 1.5875,-1.18826 0.0393,-13.480331 c 0.0423,-14.540032 0.12727,-15.671669 1.54773,-20.624078 1.39913,-4.87804 4.35106,-9.813021 8.40849,-14.05717 3.57334,-3.737782 8.52115,-6.835997 13.68473,-8.56909 6.38442,-2.142858 14.70935,-2.127664 21.29896,0.03887 12.52121,4.116734 21.11729,14.093383 23.56521,27.349887 0.93616,5.069708 0.37749,12.816007 -1.35819,18.832207 -0.89585,3.105202 -3.32304,8.047535 -5.69192,11.590125 -2.16691,3.24055 -6.53945,7.93763 -9.30038,9.99068 -0.98492,0.73239 -1.80646,1.52361 -1.82565,1.75826 -0.0192,0.23466 -0.0105,11.91618 0.0192,25.95894 0.035,16.50831 0.15057,25.90581 0.32708,26.58913 0.68927,2.66834 2.76877,5.08778 5.01386,5.83347 1.77197,0.58856 4.6971,0.42652 6.18413,-0.34257 1.53658,-0.79472 4.86893,-3.74221 6.89123,-6.09535 4.99869,-5.81644 8.16278,-12.20633 9.98458,-20.16385 l 0.81774,-3.57188 0.10022,-32.80833 c 0.0697,-22.819075 0.0108,-33.694476 -0.19362,-35.718748 C 201.90434,65.801327 198.4509,57.464086 192.28631,50.345809 185.30126,42.280141 174.98599,36.710897 163.64484,34.8822 c -3.12077,-0.503207 -11.58642,-0.430937 -14.55209,0.124229 -7.10673,1.330366 -13.00663,3.674599 -18.88808,7.504888 -7.29128,4.748435 -12.97004,11.497104 -16.69074,19.835363 -2.37668,5.326251 -3.47624,9.998064 -3.97669,16.896101 -0.4445,6.126822 -1.39254,9.326018 -3.93903,13.292391 -3.13579,4.884244 -8.344002,8.339418 -14.316911,9.497968 -2.28221,0.44267 -6.909439,0.50454 -8.902268,0.11902 -4.57982,-0.88596 -7.007765,-2.227481 -19.171508,-10.592867 l -2.012319,-1.383935 -1.294972,0.654153 c -2.311308,1.167552 -3.773999,1.531545 -6.164563,1.534064 -2.838114,0.003 -5.188559,-0.683474 -7.402674,-2.162003 -2.049355,-1.368507 -3.306382,-2.819351 -4.406035,-5.08539 -2.512602,-5.177678 -1.532946,-10.690275 2.645626,-14.887141 1.92924,-1.937685 3.391382,-2.810733 5.766013,-3.442897 6.039743,-1.607875 12.918601,2.008767 15.329129,8.059473 0.502365,1.260996 0.5961,2.019209 0.617316,4.993417 l 0.02501,3.506668 6.613164,4.458652 c 6.522048,4.397221 8.336368,5.362602 11.043105,5.875924 5.970616,1.132304 12.223217,-1.710027 14.896507,-6.771711 1.24105,-2.349836 1.66781,-4.103104 1.96251,-8.06266 0.62551,-8.404126 2.21126,-14.609945 5.4983,-21.51745 3.71478,-7.806396 8.18579,-13.563471 14.36631,-18.498736 9.07306,-7.245005 18.18978,-11.142024 29.59343,-12.649963 5.37129,-0.710262 15.18219,-0.05912 20.24121,1.343392 15.21212,4.217261 26.53056,12.586491 33.91374,25.076945 3.49899,5.919398 5.85789,12.950541 6.8348,20.372384 0.59562,4.52508 0.58561,69.414451 -0.0113,73.410061 -1.57202,10.52237 -5.62851,19.42338 -12.50934,27.44878 -2.50006,2.91593 -5.66308,5.8008 -8.20045,7.47933 -6.2262,4.11877 -14.86125,3.11012 -20.26672,-2.36733 -2.00538,-2.03209 -3.15533,-3.90938 -4.22356,-6.89497 l -0.8294,-2.31807 -0.0753,-24.40781 c -0.0414,-13.4243 -0.10094,-24.40729 -0.13229,-24.40665 -0.0314,6.4e-4 -1.28262,0.41369 -2.78061,0.91789 -2.643,0.88958 -6.78054,1.79603 -11.9777,2.62407 -1.39176,0.22174 -3.47536,0.70283 -4.63021,1.06908 -6.31533,2.00288 -11.12342,7.20875 -12.97774,14.05139 -0.45632,1.68387 -0.50165,2.99746 -0.52922,15.33536 -0.0266,11.90234 -0.0822,13.63315 -0.47156,14.67571 -0.72809,1.94957 -1.64652,3.30309 -3.21242,4.73424 -2.0024,1.83008 -4.26807,2.5542 -7.33416,2.34405 -4.22045,-0.28928 -7.77288,-2.85489 -10.64925,-7.69102 -1.37657,-2.31447 -1.51864,-2.68419 -1.27085,-3.30729 0.15344,-0.38584 0.99087,-2.48746 1.86096,-4.67027 0.87008,-2.18281 1.66366,-4.19852 1.76351,-4.47935 0.14069,-0.39572 0.51056,0.14002 1.64397,2.38125 1.56455,3.09378 4.41648,7.54985 5.43665,8.49463 1.01241,0.93759 1.88454,1.01957 2.76721,0.2601 l 0.76484,-0.65809 -0.0441,-11.59823 c -0.0468,-12.31274 0.0966,-15.03646 0.96859,-18.40047 1.40903,-5.43583 5.54953,-11.59839 10.0929,-15.02193 5.26939,-3.9706 8.58412,-5.25611 16.39352,-6.3577 4.76018,-0.67146 9.15166,-1.91399 12.61292,-3.56869 9.24257,-4.41855 15.56261,-11.45866 18.66457,-20.791114 1.35063,-4.063457 1.64093,-6.092859 1.60543,-11.222905 -0.0341,-4.9292 -0.34153,-6.600319 -1.95568,-10.631462 -1.69699,-4.238037 -5.40488,-8.684266 -9.39332,-11.263777 -2.60116,-1.682291 -6.61587,-3.333228 -9.61766,-3.954991 -2.03733,-0.421994 -3.18858,-0.501198 -5.72513,-0.393882 -6.96978,0.294879 -12.94586,2.912622 -17.51544,7.672411 -3.58423,3.73341 -5.50507,7.135834 -6.7504,11.957118 -0.50095,1.939431 -0.55684,3.085925 -0.66749,13.692187 -0.0941,9.016684 -0.0492,11.57552 0.20298,11.57552 0.85381,0 3.91314,-1.848196 5.51635,-3.332524 3.41648,-3.16314 4.26505,-5.662433 4.26505,-12.56195 0,-5.561085 0.20834,-6.848533 1.55968,-9.637816 2.16631,-4.471476 6.43814,-7.968451 10.85558,-8.886499 2.16787,-0.450535 6.42967,-0.183326 8.48682,0.532113 5.26975,1.832726 9.66597,6.933479 10.59869,12.297241 0.46716,2.686434 0.18853,7.781237 -0.54354,9.93905 -3.36325,9.913287 -10.75116,15.33456 -22.0068,16.14867 -3.94086,0.28503 -9.17695,1.29308 -12.52231,2.41078 -3.41734,1.14175 -8.41543,3.68651 -11.14268,5.67325 -2.60153,1.89517 -6.96448,6.06822 -8.69835,8.31977 -2.99114,3.88418 -5.51316,8.45397 -7.08846,12.84397 -0.84213,2.34682 -2.11403,8.13439 -2.84657,12.9529 -1.64208,10.80123 -5.42011,19.56471 -11.634599,26.9875 -5.363346,6.40616 -11.31823,11.12391 -18.385173,14.56562 -6.698679,3.26236 -13.452442,5.11338 -20.642382,5.65749 -3.992958,0.30217 -4.704956,0.30317 -8.726366,0.0122 z M 152.2677,94.308788 c 3.77053,-0.403092 7.73666,-2.289998 9.74963,-4.638437 3.82912,-4.467268 4.42256,-11.963384 1.19197,-15.056542 -1.62206,-1.553056 -2.75061,-1.978971 -5.25305,-1.982504 -1.97999,-0.0028 -2.39694,0.08382 -3.48626,0.724168 -0.68051,0.400038 -1.59992,1.167276 -2.04313,1.704973 -1.37884,1.672767 -1.61332,2.828047 -1.62366,7.999712 -0.01,4.9305 -0.24041,6.538834 -1.37641,9.601899 -0.36261,0.977722 -0.59463,1.842334 -0.51561,1.921358 0.079,0.07903 0.50939,0.08775 0.95635,0.01938 0.44697,-0.06836 1.52705,-0.200669 2.40017,-0.294011 z M 55.836078,83.542192 c 2.580704,-1.302574 3.229315,-5.152528 1.230152,-7.30179 -2.085316,-2.241883 -5.632918,-2.058343 -7.498806,0.387962 -1.031487,1.352349 -1.167259,3.745625 -0.298413,5.260183 0.759327,1.323647 2.477839,2.248958 4.176823,2.248958 0.729779,0 1.679354,-0.2365 2.390244,-0.595313 z m -5.47651,68.216828 c -6.288712,-1.52515 -10.545215,-7.72307 -9.644483,-14.04339 0.124433,-0.87313 0.179213,-1.71106 0.121735,-1.86208 -0.05748,-0.15102 -3.703104,-2.58337 -8.101391,-5.40523 C 19.86289,122.18954 16.11484,119.31391 11.874179,114.44283 4.7315924,106.23842 0.52977828,97.370911 -1.3574631,86.518755 -1.800083,83.973569 -1.8050051,75.748934 -1.3657761,72.628131 0.16882105,61.724532 4.8577444,51.807696 12.350425,43.619057 c 4.690077,-5.125715 10.151711,-9.152658 16.682008,-12.299891 7.491081,-3.610275 15.442666,-5.392975 24.030258,-5.387445 9.466274,0.0061 16.661977,1.631402 25.129482,5.676039 5.806201,2.773423 10.552638,6.125677 15.040123,10.622351 3.388784,3.395723 8.103114,9.563941 8.103114,10.602092 0,0.200033 -0.57914,1.640324 -1.28698,3.200646 -1.488705,3.281595 -2.681765,6.241103 -2.681765,6.652387 0,0.747893 -0.488766,0.06489 -1.455208,-2.03351 C 92.408311,53.045476 85.248591,45.367054 77.620257,41.035382 69.795873,36.592385 62.178154,34.568373 53.313542,34.57714 44.7898,34.58557 37.499246,36.399497 30.544275,40.242249 24.93,43.344241 18.528004,49.001687 15.004213,53.975006 7.296399,64.853468 4.9550316,79.202531 8.7700016,92.181355 c 1.7625174,5.996221 5.8725744,12.835005 10.8080354,17.983635 3.572973,3.7273 6.188995,5.68983 16.273006,12.20796 1.309688,0.84655 3.894891,2.53366 5.744897,3.74913 1.850005,1.21546 3.550657,2.2817 3.779225,2.36941 0.228681,0.0877 1.274258,-0.27363 2.324895,-0.80356 5.874879,-2.96318 12.917279,-1.10338 16.577542,4.37791 1.629927,2.44083 2.214264,4.67396 2.091415,7.99265 -0.09001,2.43148 -0.192356,2.90145 -0.980528,4.50245 -1.125407,2.28603 -3.536933,4.86994 -5.542862,5.93909 -2.841091,1.51429 -6.455427,1.99398 -9.486059,1.25899 z m 4.435846,-7.86615 c 0.494658,-0.16778 1.240674,-0.54296 1.657814,-0.83372 1.69112,-1.1788 2.312949,-4.56978 1.153497,-6.29029 -2.748821,-4.07897 -8.923391,-2.3376 -8.923391,2.51661 0,2.22539 1.081263,3.81252 3.083769,4.52651 1.267285,0.45185 1.885886,0.46838 3.028311,0.0809 z M 97.748748,124.7415 c -2.447343,-5.94205 -4.645569,-9.53141 -8.45049,-13.79833 -0.802885,-0.90037 -1.369775,-1.69043 -1.259754,-1.75569 0.11002,-0.0652 0.85488,-0.19546 1.655245,-0.28934 0.800364,-0.0939 2.87183,-0.48896 4.603256,-0.87794 l 3.148048,-0.70723 0.767084,0.91383 c 1.078124,1.28437 4.710773,7.1444 4.710773,7.5992 0,0.20718 -0.24278,0.71765 -0.53952,1.13439 -0.29674,0.41673 -1.05933,1.92339 -1.69464,3.34813 -0.63532,1.42474 -1.459527,3.24099 -1.83158,4.0361 l -0.67646,1.44566 z"
       id="path1" /></g></svg>
